<?xml version="1.0" standalone="no"?>
<!DOCTYPE svg PUBLIC "-//W3C//DTD SVG 20010904//EN"
 "http://www.w3.org/TR/2001/REC-SVG-20010904/DTD/svg10.dtd">
<svg version="1.0" xmlns="http://www.w3.org/2000/svg"
 width="225.000000pt" height="225.000000pt" viewBox="0 0 225.000000 225.000000"
 preserveAspectRatio="xMidYMid meet">
<metadata>
Created by potrace 1.14, written by Peter Selinger 2001-2017
</metadata>
<g transform="translate(0.000000,225.000000) scale(0.100000,-0.100000)"
fill="#000000" stroke="none">
<path d="M805 1895 c-126 -18 -227 -39 -334 -71 l-84 -25 6 -247 c5 -272 19
-373 69 -532 93 -293 266 -489 571 -650 l92 -49 84 45 c125 66 218 131 296
206 l70 68 -45 -16 c-78 -27 -202 -53 -285 -59 -306 -25 -471 144 -452 463 11
188 101 374 255 526 170 168 389 250 543 205 62 -19 131 -90 154 -158 25 -75
17 -168 -21 -246 -38 -81 -157 -199 -244 -243 -36 -18 -126 -54 -200 -82
l-135 -49 3 -31 c5 -67 57 -137 123 -164 93 -39 202 -29 328 31 106 51 153
102 185 201 51 162 76 368 76 634 l0 146 -47 16 c-75 24 -169 46 -283 68 -141
26 -576 34 -725 13z m-101 -946 c17 -13 26 -30 26 -49 0 -29 -38 -70 -65 -70
-27 0 -65 41 -65 70 0 29 38 70 65 70 7 0 24 -9 39 -21z"/>
<path d="M1355 1556 c-123 -57 -202 -203 -212 -394 l-6 -103 74 27 c114 40
188 84 250 145 118 118 132 281 30 334 -41 21 -77 19 -136 -9z"/>
</g>
</svg>
